<svg xmlns="http://www.w3.org/2000/svg" width="509" height="509" fill="none" viewBox="0 0 509 509"><style>ellipse,path{fill:#000}@media (prefers-color-scheme:dark){ellipse,path{fill:#fff}}</style><path fill="#fff" fill-rule="evenodd" d="M254.5 51.4141C142.339 51.4141 51.4141 142.339 51.4141 254.5C51.4141 366.661 142.339 457.586 254.5 457.586C366.661 457.586 457.586 366.661 457.586 254.5C457.586 142.339 366.661 51.4141 254.5 51.4141ZM0 254.5C0 113.944 113.944 0 254.5 0C395.056 0 509 113.944 509 254.5C509 395.056 395.056 509 254.5 509C113.944 509 0 395.056 0 254.5Z" clip-rule="evenodd"/><ellipse cx="145.619" cy="318.865" fill="#fff" rx="37.65" ry="37.65"/><ellipse cx="254.11" cy="363.901" fill="#fff" rx="37.65" ry="37.65"/><ellipse cx="364.976" cy="318.865" fill="#fff" rx="40.546" ry="37.65"/></svg>